<svg xmlns="http://www.w3.org/2000/svg" version="1.1" xmlns:xlink="http://www.w3.org/1999/xlink" xmlns:svgjs="http://svgjs.dev/svgjs" width="1600" height="1600"><svg version="1.1" xmlns="http://www.w3.org/2000/svg" viewBox="0 0 1600.000000 1600.000000" style="enable-background:new 0 0 512 512;" xml:space="preserve">

<g transform="translate(0.000000,1600.000000) scale(0.100000,-0.100000)" fill="#000000" stroke="none">

<path fill="#ffffff" transform="scale(0.95) translate(500, 500)" d="M3105 15993 c-639 -42 -1298 -294 -1810 -692 -744 -579 -1210 -1442 -1285 -2375 -14 -181 -14 -9677 1 -9853 65 -798 405 -1532 970 -2094 570 -567 1304 -907 2093 -969 178 -14 9674 -14 9852 0 1018 80 1949 631 2519 1489 291 439 455 886 537 1461 17 120 25 9722 8 9950 -98 1328 -983 2474 -2248 2911 -202 69 -405 117 -662 156 -108 16 -417 17 -5020 18 -2698 1 -4927 0 -4955 -2z"></path>
<path d="M3105 15993 c-639 -42 -1298 -294 -1810 -692 -744 -579 -1210 -1442
-1285 -2375 -14 -181 -14 -9677 1 -9853 65 -798 405 -1532 970 -2094 570 -567
1304 -907 2093 -969 178 -14 9674 -14 9852 0 1018 80 1949 631 2519 1489 291
439 455 886 537 1461 17 120 25 9722 8 9950 -98 1328 -983 2474 -2248 2911
-202 69 -405 117 -662 156 -108 16 -417 17 -5020 18 -2698 1 -4927 0 -4955 -2z
m9904 -646 c276 -43 507 -107 728 -202 798 -346 1404 -1091 1572 -1931 60
-298 56 51 56 -5214 0 -5208 3 -4915 -50 -5187 -206 -1062 -1066 -1922 -2128
-2128 -272 -53 21 -50 -5187 -50 -5208 0 -4915 -3 -5187 50 -1060 206 -1922
1065 -2127 2121 -54 281 -51 -30 -51 5194 0 3931 2 4875 13 4960 35 279 114
568 221 807 269 604 786 1114 1394 1378 282 122 615 200 927 218 30 2 2226 3
4880 2 4539 -1 4832 -2 4939 -18z"></path>
<path d="M5031 13848 c-24 -68 -63 -177 -86 -243 -24 -66 -69 -192 -100 -280
-76 -217 -162 -457 -230 -650 -31 -88 -71 -198 -87 -245 -135 -380 -371 -1046
-420 -1185 -33 -93 -81 -231 -108 -305 -27 -74 -64 -180 -83 -235 -32 -91
-103 -291 -339 -955 -44 -124 -108 -306 -143 -405 -35 -99 -111 -315 -170
-480 -59 -165 -133 -374 -165 -465 -32 -91 -70 -196 -83 -235 -26 -70 -208
-584 -317 -895 -32 -91 -77 -217 -100 -280 -23 -63 -59 -164 -80 -225 -21 -60
-88 -252 -150 -425 -62 -173 -138 -389 -170 -480 -32 -91 -88 -249 -124 -352
-36 -102 -66 -189 -66 -192 0 -3 421 -5 936 -4 l935 3 19 55 c10 30 95 291
190 580 94 289 212 649 261 800 50 151 97 290 104 308 l15 32 830 0 830 0 0
745 0 745 -580 0 c-465 0 -582 3 -586 13 -2 7 40 150 95 317 119 362 106 323
316 965 92 281 213 652 270 825 57 173 140 425 184 560 44 135 112 344 152
465 39 121 76 226 81 232 16 20 24 8 43 -59 9 -35 30 -101 45 -148 16 -47 38
-116 50 -155 29 -93 80 -255 183 -575 47 -146 111 -346 142 -445 32 -99 79
-247 105 -330 27 -82 79 -243 115 -357 l66 -208 900 0 c494 0 899 2 899 4 0 2
-68 197 -151 432 -83 236 -168 479 -189 539 -77 222 -122 352 -145 415 -13 36
-54 151 -90 255 -59 168 -109 312 -230 655 -55 156 -221 628 -255 725 -43 123
-86 246 -164 470 -37 105 -80 226 -95 270 -15 44 -63 180 -106 303 l-79 222
-1016 0 -1016 0 -43 -122z"></path>
<path d="M9895 11139 c-154 -12 -392 -41 -404 -48 -7 -5 21 -93 85 -267 97
-263 167 -455 186 -509 5 -16 12 -37 16 -45 3 -8 55 -150 117 -315 l111 -300
279 -6 c410 -9 636 -49 911 -165 401 -167 653 -453 758 -861 19 -73 47 -273
40 -285 -3 -4 385 -8 862 -8 l867 0 -7 98 c-66 949 -434 1617 -1158 2104 -520
350 -1112 548 -1813 608 -138 11 -702 11 -850 -1z"></path>
<path d="M7010 8393 c0 -373 70 -724 207 -1033 26 -58 55 -117 65 -132 10 -14
18 -29 18 -32 0 -12 118 -183 179 -258 73 -91 205 -217 312 -299 381 -290
1009 -515 2119 -758 933 -205 1028 -226 1210 -277 264 -73 474 -150 643 -235
142 -71 202 -113 292 -204 134 -136 199 -289 212 -497 l6 -98 859 0 858 0 0
215 c0 433 -72 774 -229 1090 -111 224 -225 381 -392 539 -221 211 -475 365
-840 509 -339 135 -438 162 -1789 483 -1006 239 -1259 308 -1525 418 -339 141
-506 350 -550 689 l-6 47 -825 0 -824 0 0 -167z"></path>
<path d="M6873 4738 c28 -781 348 -1445 927 -1919 618 -507 1451 -773 2493
-796 l267 -6 0 737 0 736 -177 0 c-336 0 -585 37 -853 126 -363 121 -639 352
-776 650 -71 153 -127 342 -160 537 l-18 107 -855 0 -854 0 6 -172z"></path>
</g>
</svg><style>@media (prefers-color-scheme: light) { :root { filter: none; } }
@media (prefers-color-scheme: dark) { :root { filter: invert(100%); } }
</style></svg>